{
    "asset" : {
        "generator" : "Khronos glTF Blender I/O v1.7.33",
        "version" : "2.0"
    },
    "scene" : 0,
    "scenes" : [
        {
            "name" : "Scene",
            "nodes" : [
                0
            ]
        }
    ],
    "nodes" : [
        {
            "mesh" : 0,
            "name" : "Cylinder"
        }
    ],
    "materials" : [
        {
            "doubleSided" : true,
            "emissiveFactor" : [
                1,
                1,
                1
            ],
            "name" : "QuartziteDenali002_8K.001",
            "pbrMetallicRoughness" : {}
        }
    ],
    "meshes" : [
        {
            "name" : "Cylinder.001",
            "primitives" : [
                {
                    "attributes" : {
                        "POSITION" : 0,
                        "NORMAL" : 1,
                        "TEXCOORD_0" : 2
                    },
                    "indices" : 3,
                    "material" : 0
                }
            ]
        }
    ],
    "accessors" : [
        {
            "bufferView" : 0,
            "componentType" : 5126,
            "count" : 1800,
            "max" : [
                2.9993419647216797,
                0.2750000059604645,
                3
            ],
            "min" : [
                -2.9993419647216797,
                -0.2750000059604645,
                -3
            ],
            "type" : "VEC3"
        },
        {
            "bufferView" : 1,
            "componentType" : 5126,
            "count" : 1800,
            "type" : "VEC3"
        },
        {
            "bufferView" : 2,
            "componentType" : 5126,
            "count" : 1800,
            "type" : "VEC2"
        },
        {
            "bufferView" : 3,
            "componentType" : 5123,
            "count" : 3576,
            "type" : "SCALAR"
        }
    ],
    "bufferViews" : [
        {
            "buffer" : 0,
            "byteLength" : 21600,
            "byteOffset" : 0
        },
        {
            "buffer" : 0,
            "byteLength" : 21600,
            "byteOffset" : 21600
        },
        {
            "buffer" : 0,
            "byteLength" : 14400,
            "byteOffset" : 43200
        },
        {
            "buffer" : 0,
            "byteLength" : 7152,
            "byteOffset" : 57600
        }
    ],
    "buffers" : [
        {
            "byteLength" : 64752,
            "uri" : "lower_podium.bin"
        }
    ]
}
